<svg width="79" height="79" viewBox="0 0 79 79" fill="none" xmlns="http://www.w3.org/2000/svg">
<path d="M62.045 56.4218C64.5556 49.2881 65.8331 41.8408 65.8331 34.2339H50.0331L44.7669 39.5H34.2331V28.9669H39.5V23.7H28.9669V13.1669H23.7V23.7H18.4331V39.5H13.1669V56.8737C11.3618 57.226 9.59217 57.7506 7.89999 58.4529L9.91607 63.3177C15.4089 61.0449 21.4572 61.0449 26.9508 63.3232C30.9988 64.9949 35.2474 65.8331 39.4984 65.8331C43.7494 65.8331 48.0004 64.9949 52.0452 63.3177C57.5381 61.0449 63.5863 61.0394 69.0847 63.3177L71.1 58.4529C68.1351 57.226 65.0802 56.5861 62.045 56.4218ZM23.7 28.9669H28.9669V39.5H23.7V28.9669ZM50.0307 58.4529C43.01 61.364 35.4702 61.1476 28.9669 58.4529C25.5209 57.0254 21.9462 56.3602 18.4331 56.3602V44.7669H46.9473L52.2143 39.5H60.3283C59.814 45.5253 58.4308 51.3034 56.3112 56.7173C54.1529 57.057 52.0389 57.6218 50.0307 58.4529Z" fill="white"/>
<path d="M52.6669 50.0331C54.1211 50.0331 55.3 48.8542 55.3 47.4C55.3 45.9458 54.1211 44.7669 52.6669 44.7669C51.2127 44.7669 50.0339 45.9458 50.0339 47.4C50.0339 48.8542 51.2127 50.0331 52.6669 50.0331Z" fill="white"/>
</svg>
