<svg width="55" height="55" viewBox="0 0 55 55" fill="none" xmlns="http://www.w3.org/2000/svg">
<path d="M43.1959 39.281C44.9438 34.3145 45.8331 29.1297 45.8331 23.8337H34.8331L31.1668 27.5H23.8331V20.1669H27.5V16.5H20.1668V9.16687H16.5V16.5H12.8331V27.5H9.16685V39.5956C7.9101 39.8409 6.6781 40.2061 5.5 40.6951L6.9036 44.082C10.7277 42.4996 14.9385 42.4996 18.7632 44.0858C21.5814 45.2496 24.5393 45.8332 27.4989 45.8332C30.4584 45.8332 33.418 45.2496 36.234 44.082C40.0581 42.4996 44.2689 42.4958 48.0969 44.082L49.5 40.6951C47.4358 39.8409 45.309 39.3954 43.1959 39.281ZM16.5 20.1669H20.1668V27.5H16.5V20.1669ZM34.8315 40.6951C29.9436 42.7218 24.6944 42.5711 20.1668 40.6951C17.7677 39.7012 15.279 39.2381 12.8331 39.2381V31.1669H32.6848L36.3517 27.5H42.0007C41.6427 31.6949 40.6796 35.7176 39.204 39.4867C37.7014 39.7232 36.2296 40.1165 34.8315 40.6951Z" fill="black"/>
<path d="M36.6668 34.8332C37.6792 34.8332 38.5 34.0124 38.5 33C38.5 31.9876 37.6792 31.1669 36.6668 31.1669C35.6544 31.1669 34.8337 31.9876 34.8337 33C34.8337 34.0124 35.6544 34.8332 36.6668 34.8332Z" fill="black"/>
</svg>
