<svg width="46" height="46" viewBox="0 0 46 46" fill="none" xmlns="http://www.w3.org/2000/svg">
<g clip-path="url(#clip0_2_51)">
<path d="M13.0563 26.7126H17.8825V44.5606C17.8825 45.3541 18.5246 45.9981 19.32 45.9981L27.0001 46C27.7955 46 28.4376 45.3541 28.4376 44.5625V26.7145H33.0127C33.7372 26.7145 34.3486 26.174 34.4387 25.4552L35.3932 17.7886C35.5005 16.9338 34.8316 16.1728 33.9672 16.1728H28.4376C28.6542 11.4367 27.6038 10.0357 30.6839 10.0357C32.7693 9.7865 36.0583 10.8426 36.0583 8.59817V1.74225C36.0583 1.0235 35.5273 0.415917 34.8163 0.318167C34.2144 0.23575 31.8358 0 28.8861 0C15.4503 0 18.216 14.8963 17.8844 16.1709H13.0563C12.2628 16.1709 11.6188 16.8149 11.6188 17.6084V25.2751C11.6188 26.0686 12.2628 26.7126 13.0563 26.7126ZM14.4938 19.0478H19.32C20.1135 19.0478 20.7575 18.4038 20.7575 17.6103V11.5709C20.7575 6.04517 23.7188 2.87692 28.8842 2.87692C30.567 2.87692 32.1157 2.95933 33.1813 3.04367V7.16258C32.4108 7.5555 25.5607 5.46825 25.5607 12.3318V17.6122C25.5607 18.4058 26.2047 19.0497 26.9982 19.0497H32.338L31.74 23.8414H26.9982C26.2047 23.8414 25.5607 24.4854 25.5607 25.2789V43.125H20.7594V25.277C20.7594 24.4835 20.1154 23.8395 19.3219 23.8395H14.4938V19.0478Z" fill="black"/>
</g>
<defs>
<clipPath id="clip0_2_51">
<rect width="46" height="46" fill="white"/>
</clipPath>
</defs>
</svg>
