<svg width="46" height="46" viewBox="0 0 46 46" fill="none" xmlns="http://www.w3.org/2000/svg">
<g clip-path="url(#clip0_2_53)">
<path d="M9.10417 46H36.8958C41.9156 46 46 41.9156 46 36.8958V9.10417C46 4.08442 41.9156 0 36.8958 0H9.10417C4.08442 0 0 4.08442 0 9.10417V36.8958C0 41.9156 4.08442 46 9.10417 46ZM2.875 9.10417C2.875 5.6695 5.6695 2.875 9.10417 2.875H36.8958C40.3305 2.875 43.125 5.6695 43.125 9.10417V36.8958C43.125 40.3305 40.3305 43.125 36.8958 43.125H9.10417C5.6695 43.125 2.875 40.3305 2.875 36.8958V9.10417Z" fill="black"/>
<path d="M23 34.7492C29.4784 34.7492 34.7492 29.4783 34.7492 23C34.7492 16.5217 29.4784 11.2508 23 11.2508C16.5217 11.2508 11.2509 16.5217 11.2509 23C11.2509 29.4783 16.5217 34.7492 23 34.7492ZM23 14.1258C27.8933 14.1258 31.8742 18.1067 31.8742 23C31.8742 27.8932 27.8933 31.8742 23 31.8742C18.1068 31.8742 14.1259 27.8932 14.1259 23C14.1259 18.1067 18.1068 14.1258 23 14.1258Z" fill="black"/>
<path d="M35.1861 14.1105C37.076 14.1105 38.5001 12.6922 38.5001 10.8119C38.5001 8.85117 37.0012 7.51334 35.1881 7.51334C33.2982 7.51334 31.8741 8.93167 31.8741 10.8119C31.8741 12.7688 33.3653 14.1105 35.1861 14.1105ZM35.5254 10.4957C36.1311 11.0304 34.7491 11.6802 34.7491 10.8138C34.7491 10.2963 35.4526 10.4305 35.5254 10.4957Z" fill="black"/>
</g>
<defs>
<clipPath id="clip0_2_53">
<rect width="46" height="46" fill="white"/>
</clipPath>
</defs>
</svg>
