<svg width="46" height="46" viewBox="0 0 46 46" fill="none" xmlns="http://www.w3.org/2000/svg">
<path d="M39.8916 37.9673C39.3683 40.2673 38.8068 41.2198 35.7899 40.7253C34.9121 40.5797 33.8158 40.3976 32.4664 40.6199C30.2278 40.9918 24.3091 48.5319 15.893 41.8811C14.2504 40.7311 13.3534 40.0948 10.166 40.7196C8.77451 40.9898 6.99009 40.7043 6.11801 37.9673C-2.19841 36.4703 -0.412071 31.8838 2.07959 31.4832C6.41126 30.7759 9.28434 26.3043 9.59101 24.8783C9.28626 24.6905 8.61926 24.4586 8.19376 24.3129C1.16918 21.8826 5.07918 15.9678 9.85551 17.7924C9.54309 12.8091 9.45301 8.81668 13.5298 4.98909C17.8633 0.933427 24.5583 0.747511 28.9302 2.66609C36.5508 5.99726 36.4914 12.4507 36.1522 17.8691C39.1901 16.7076 41.2505 18.3808 41.5821 20.0963C42.0843 22.8007 39.5006 23.7092 37.9596 24.2516C37.421 24.4413 36.5221 24.7576 36.386 24.8592C36.5528 25.0528 37.5188 29.348 43.24 31.2455C44.3325 31.6078 45.3656 31.9508 45.8141 32.9513C46.0805 33.5493 46.0594 34.2202 45.7451 34.9428C44.9727 36.7368 42.4618 37.5073 39.8916 37.9673ZM33.9212 26.4347C32.6562 23.8855 34.316 22.4959 37.0032 21.5491C37.5705 21.3498 38.6247 20.9779 38.7627 20.6368C38.7148 20.516 38.3372 20.2745 37.9788 20.2745C37.8676 20.2822 37.5494 20.4048 37.3386 20.4834C28.2498 23.9258 38.9735 10.1833 27.7783 5.29193C24.3493 3.78926 18.8792 3.90809 15.4943 7.08018C10.0683 12.1708 14.3367 19.6037 11.983 20.6751C10.3078 21.436 8.70551 20.2649 8.12668 20.2477C7.67626 20.2477 7.28334 20.516 7.24118 20.6118C7.23351 20.9511 8.41993 21.3613 9.1291 21.6066C12.4066 22.7393 13.4301 24.0963 11.5767 27.4754C10.1794 30.0246 7.22393 33.1967 3.31009 34.1588C6.05668 35.7458 8.14201 34.3486 8.75151 36.7483C9.06585 38.0228 9.2671 37.9788 9.61401 37.9117C19.3238 36.0103 18.6607 46.0958 28.5296 39.5044C31.8972 37.2562 32.5546 37.4958 36.9342 38.0018C37.1182 37.2792 37.237 36.4972 37.4919 36.0257C38.1838 34.7453 40.7445 35.3932 42.7513 34.1071C38.7243 32.729 36.0008 31.1075 33.9212 26.4347Z" fill="black"/>
</svg>
