<svg width="46" height="46" viewBox="0 0 46 46" fill="none" xmlns="http://www.w3.org/2000/svg">
<path d="M0.906558 37.5571C5.16539 40.2596 10.1219 41.6875 15.2394 41.6875C22.7336 41.6875 29.601 38.8087 34.5786 33.5819C39.3415 28.5794 41.9616 21.8577 41.8312 15.0363C43.6367 13.4914 45.7604 10.5417 45.7604 7.66667C45.7604 6.56459 44.5644 5.86501 43.5946 6.42659C41.8983 7.42326 40.3516 7.68392 38.7607 7.23734C35.512 4.07101 30.6762 3.40401 26.6014 5.60051C23.0402 7.51717 21.0603 11.0247 21.2386 14.858C15.2221 14.1239 9.66381 11.1071 5.78831 6.41892C5.15198 5.65417 3.94448 5.74426 3.43848 6.61059C1.57164 9.80759 1.59081 13.5125 3.21423 16.5044C2.44181 16.6405 1.96456 17.2903 1.96456 17.9937C1.96456 21.0009 3.31773 23.7648 5.49697 25.6508C5.09064 26.0418 4.95648 26.6225 5.12898 27.14C6.08731 30.0188 8.25698 32.269 10.9691 33.396C8.01931 34.8048 4.75714 35.2743 1.85339 34.9178C0.350725 34.7147 -0.391025 36.7348 0.906558 37.5571ZM15.6323 33.8886C16.7076 33.0625 16.1364 31.3413 14.7871 31.3126C12.4104 31.2628 10.2465 30.0917 8.89906 28.2498C9.54881 28.2076 10.2216 28.1079 10.8617 27.9354C12.3203 27.5406 12.2513 25.4361 10.7697 25.139C8.08064 24.5985 5.97039 22.6397 5.17881 20.1173C5.90139 20.2956 6.63739 20.3953 7.37147 20.4087C8.82623 20.4163 9.37631 18.5514 8.18989 17.7713C5.51614 16.0099 4.37573 12.8992 5.13089 9.97434C9.79989 14.7047 16.1345 17.5548 22.8351 17.8768C23.7954 17.9362 24.5161 17.0334 24.3052 16.1192C23.3948 12.1728 25.599 9.40701 27.9661 8.13242C30.3082 6.86742 34.0687 6.47259 36.9514 9.49709C37.8081 10.3998 40.6985 10.4343 42.1686 10.0913C41.5092 11.3333 40.4953 12.512 39.5466 13.1752C39.1421 13.4588 38.9102 13.9303 38.9351 14.4229C39.2437 20.7192 36.8977 26.979 32.499 31.5963C28.0676 36.248 21.9401 38.8106 15.2413 38.8106C12.5771 38.8106 9.96472 38.3774 7.49606 37.5418C10.4477 36.9706 13.2518 35.7209 15.6323 33.8886Z" fill="black"/>
</svg>
